HIERARCHY
ROOT hip
{
	OFFSET 0.000000 0.000000 0.000000 
	CHANNELS 6 Xposition Yposition Zposition Xrotation Zrotation Yrotation
	JOINT abdomen
	{
		OFFSET 0.000000 3.402643 0.000000 
		CHANNELS 3 Xrotation Zrotation Yrotation
		JOINT chest
		{
			OFFSET 0.000000 8.438565 -0.680529 
			CHANNELS 3 Xrotation Zrotation Yrotation
			JOINT neck
			{
				OFFSET 0.000000 10.207942 -0.272212 
				CHANNELS 3 Xrotation Zrotation Yrotation
				JOINT head
				{
					OFFSET 0.000000 3.130431 0.000000 
					CHANNELS 3 Xrotation Zrotation Yrotation
					End Site
					{
						OFFSET 0.000000 3.130435 0.000000 
					}
				}
			}
			JOINT lCollar
			{
				OFFSET 3.470700 6.669187 -0.816635 
				CHANNELS 3 Yrotation Zrotation Xrotation
				JOINT lShldr
				{
					OFFSET 3.198488 0.000000 0.000000 
					CHANNELS 3 Zrotation Yrotation Xrotation
					JOINT lForeArm
					{
						OFFSET 10.139888 0.000000 0.000000 
						CHANNELS 3 Yrotation Zrotation Xrotation
						JOINT lHand
						{
							OFFSET 8.370511 0.000000 0.000000 
							CHANNELS 3 Zrotation Yrotation Xrotation
							End Site
							{
								OFFSET 4.083176 0.000000 0.000000 
							}
						}
					}
				}
			}
			JOINT rCollar
			{
				OFFSET -3.470700 6.669187 -0.816635 
				CHANNELS 3 Yrotation Zrotation Xrotation
				JOINT rShldr
				{
					OFFSET -3.198488 0.000000 0.000000 
					CHANNELS 3 Zrotation Yrotation Xrotation
					JOINT rForeArm
					{
						OFFSET -10.139888 0.000000 0.000000 
						CHANNELS 3 Yrotation Zrotation Xrotation
						JOINT rHand
						{
							OFFSET -8.370511 0.000000 0.000000 
							CHANNELS 3 Zrotation Yrotation Xrotation
							End Site
							{
								OFFSET -4.083176 0.000000 0.000000 
							}
						}
					}
				}
			}
		}
	}
	JOINT lThigh
	{
		OFFSET 5.308129 -1.633274 1.361059 
		CHANNELS 3 Xrotation Zrotation Yrotation
		JOINT lShin
		{
			OFFSET -2.041588 -20.007561 0.000000 
			CHANNELS 3 Xrotation Zrotation Yrotation
			JOINT lFoot
			{
				OFFSET 0.000000 -19.190928 -1.224953 
				CHANNELS 3 Xrotation Yrotation Zrotation
				End Site
				{
					OFFSET 0.000000 -2.449906 4.627600 
				}
			}
		}
	}
	JOINT rThigh
	{
		OFFSET -5.308129 -1.633274 1.361059 
		CHANNELS 3 Xrotation Zrotation Yrotation
		JOINT rShin
		{
			OFFSET 2.041588 -20.007561 0.000000 
			CHANNELS 3 Xrotation Zrotation Yrotation
			JOINT rFoot
			{
				OFFSET 0.000000 -19.190928 -1.224953 
				CHANNELS 3 Xrotation Yrotation Zrotation
				End Site
				{
					OFFSET 0.000000 -2.449906 4.627600 
				}
			}
		}
	}
}
MOTION
Frames: 16
Frame Time: 0.016667
-1.069314 44.493073 -1.561323 -2.795280 -5.325720 -11.303100 -14.792300 2.466070 -2.168010 17.673901 2.048190 -0.864768 63.561600 11.547100 -13.274500 -8.603520 0.000000 0.000000 2.000000 -2.000000 0.000000 -24.936399 4.518440 138.302994 106.758003 -0.172612 0.150066 -174.830994 177.951996 7.646050 -2.000000 2.000000 0.000000 20.050900 -10.874600 125.179001 -110.967003 0.169421 0.108795 5.910820 3.109980 -142.468002 -4.802886 6.594831 0.442460 29.740009 3.685723 1.956227 -23.304192 10.974517 5.230333 5.809048 3.358005 8.297919 3.679252 -4.236359 -0.115002 -15.654312 -11.125531 -2.798825 
-1.080884 44.492039 -1.574017 -2.766120 -5.384380 -11.361600 -14.743800 2.516550 -2.198650 17.751900 2.155620 -0.876990 63.182800 12.006900 -13.476600 -8.603520 0.000000 0.000000 2.000000 -2.000000 0.000000 -23.577600 4.380250 137.473007 107.833000 -0.169990 0.149249 -174.826004 177.972000 7.870510 -2.000000 2.000000 0.000000 18.781099 -10.171400 125.121002 -111.533997 0.168251 0.108341 5.944410 3.057060 -141.942001 -4.801072 6.681516 0.434215 29.730370 3.683956 1.955881 -23.305307 10.993932 5.242708 5.778782 3.428155 8.400500 3.663305 -4.238263 -0.135067 -15.678259 -11.121779 -2.809667 
-1.088263 44.490475 -1.579881 -2.746590 -5.403980 -11.391800 -14.714500 2.522980 -2.208710 17.771400 2.194670 -0.878151 63.144001 12.234400 -13.593500 -8.603520 0.000000 0.000000 2.000000 -2.000000 0.000000 -22.658600 4.164320 136.848007 108.584000 -0.168164 0.148648 5.195120 1.996650 -171.699997 -2.000000 2.000000 0.000000 17.960600 -9.692810 125.072998 -111.973000 0.167346 0.107980 5.955510 3.031080 -141.688995 -4.803395 6.715844 0.435235 29.700569 3.690053 1.967275 -23.316601 10.963309 5.246928 5.758739 3.463681 8.490499 3.647394 -4.238597 -0.125039 -15.639419 -11.205537 -2.807113 
-1.095643 44.488914 -1.585756 -2.727060 -5.423580 -11.422000 -14.695200 2.542140 -2.212620 17.790800 2.243480 -0.889521 63.098900 12.463900 -13.691700 -8.603520 0.000000 0.000000 2.000000 -2.000000 0.000000 -21.739599 3.967900 136.214005 109.335999 -0.166346 0.148024 5.204300 1.955840 -171.270004 -2.000000 2.000000 0.000000 17.140100 -9.223980 125.014999 -112.412003 0.166445 0.107612 5.965930 3.005550 -141.445007 -4.797561 6.753718 0.454920 29.690802 3.689409 1.967201 -23.327805 10.940989 5.233816 5.728714 3.501707 8.550238 3.631905 -4.238488 -0.114975 -15.583953 -11.255268 -2.805366 
-1.107851 44.484631 -1.585914 -2.736690 -5.384510 -11.481500 -14.685700 2.570620 -2.219510 17.800501 2.331290 -0.883593 63.143200 12.846500 -13.562400 -8.603520 0.000000 0.000000 2.000000 -2.000000 0.000000 -20.771601 3.712810 135.520996 110.274002 -0.164091 0.147211 5.224390 1.904840 -170.742996 -2.000000 2.000000 0.000000 16.212099 -8.647730 124.957001 -112.910004 0.165427 0.107187 5.985340 2.967980 -141.093994 -4.754515 6.738442 0.543158 29.641468 3.694135 1.978536 -23.348680 10.899236 5.209478 5.715496 3.468445 8.643638 3.633004 -4.238536 -0.135179 -15.656209 -11.290963 -2.823556 
-1.120059 44.480354 -1.586059 -2.736520 -5.345500 -11.532200 -14.676300 2.593080 -2.214780 17.800301 2.428830 -0.888281 63.189800 13.230400 -13.440400 -8.603520 0.000000 0.000000 2.000000 -2.000000 0.000000 -19.813400 3.467480 134.819000 111.210999 -0.161849 0.146362 5.245500 1.863400 -170.205002 -2.000000 2.000000 0.000000 15.284100 -8.081210 124.879997 -113.399002 0.164432 0.106761 6.003890 2.930930 -140.753006 -4.721845 6.738501 0.640604 29.603405 3.682701 1.975824 -23.350746 10.839108 5.206674 5.709501 3.442170 8.737998 3.634548 -4.236718 -0.125256 -15.712951 -11.335070 -2.832738 
-1.135301 44.477882 -1.584285 -2.726750 -5.355290 -11.561900 -14.667400 2.635260 -2.185080 17.809900 2.477620 -0.870671 63.228600 13.439700 -13.383300 -8.603520 0.000000 0.000000 2.000000 -2.000000 0.000000 -19.148399 3.105290 134.302002 111.865997 -0.160293 0.145748 5.250740 1.842700 -169.942001 -2.000000 2.000000 0.000000 14.678300 -7.709950 124.753998 -113.740997 0.163738 0.106459 6.019120 2.896460 -140.470993 -4.699049 6.758648 0.709152 29.572536 3.691107 1.968461 -23.329151 10.838840 5.202297 5.724650 3.462559 8.800961 3.621389 -4.235125 -0.124778 -15.729222 -11.338090 -2.857085 
-1.150534 44.475410 -1.582521 -2.726750 -5.355290 -11.591200 -14.648500 2.664720 -2.161960 17.809799 2.536150 -0.863708 63.246101 13.639700 -13.350200 -8.603520 0.000000 0.000000 2.000000 -2.000000 0.000000 -18.483400 2.752850 133.774994 112.519997 -0.158744 0.145116 5.254380 1.812310 -169.667999 -2.000000 2.000000 0.000000 14.062700 -7.348430 124.617996 -114.072998 0.163065 0.106161 6.034070 2.862110 -140.188004 -4.685152 6.796216 0.779256 29.551807 3.700383 1.970992 -23.280884 10.826633 5.188349 5.709767 3.475970 8.859413 3.624595 -4.232380 -0.125221 -15.752240 -11.362972 -2.852609 
-1.172643 44.472820 -1.575770 -2.726580 -5.316280 -11.514900 -14.677800 2.670320 -2.175190 17.770599 2.575080 -0.867331 63.196602 13.805800 -13.272300 -8.603520 0.000000 0.000000 2.000000 -2.000000 0.000000 -17.759501 2.331840 133.112000 113.399002 -0.156675 0.144239 5.268970 1.791590 -169.404007 -2.000000 2.000000 0.000000 13.349400 -6.947790 124.433998 -114.589996 0.162020 0.105688 6.044330 2.836130 -139.925003 -4.690337 6.763617 0.719102 29.552809 3.691550 1.968765 -23.291019 10.802141 5.187024 5.714261 3.453846 8.838182 3.631301 -4.226630 -0.124639 -15.786985 -11.377143 -2.874446 
-1.194739 44.470222 -1.569029 -2.726370 -5.267500 -11.448900 -14.697600 2.688930 -2.181220 17.721701 2.604240 -0.880737 63.148602 13.972200 -13.194000 -8.603520 0.000000 0.000000 2.000000 -2.000000 0.000000 -17.025900 1.920610 132.447998 114.288002 -0.154597 0.143320 5.273610 1.770870 -169.141006 -2.000000 2.000000 0.000000 12.636000 -6.556910 124.238998 -115.117996 0.160960 0.105197 6.064660 2.809800 -139.651993 -4.706629 6.748066 0.650954 29.533918 3.681084 1.956471 -23.289352 10.801405 5.196177 5.724357 3.442760 8.808623 3.637223 -4.234425 -0.125024 -15.806967 -11.402404 -2.879648 
-1.219420 44.469582 -1.555424 -2.696990 -5.277380 -11.402300 -14.668500 2.690190 -2.149690 17.770700 2.555570 -0.856618 63.314499 14.135200 -13.085000 -8.603520 0.000000 0.000000 2.000000 -2.000000 0.000000 -16.399900 1.411840 131.852997 114.874001 -0.153235 0.142697 5.286930 1.750320 -168.906006 -2.000000 2.000000 0.000000 12.147000 -6.331810 123.877998 -115.528000 0.160138 0.104808 6.063700 2.810620 -139.671997 -4.708912 6.774650 0.611380 29.522642 3.697228 1.970415 -23.287313 10.787701 5.176229 5.753078 3.494193 8.787790 3.615859 -4.239348 -0.115468 -15.811888 -11.435436 -2.877303 
-1.244089 44.468933 -1.541821 -2.677370 -5.277470 -11.345500 -14.639600 2.694870 -2.109020 17.809900 2.506890 -0.833010 63.482498 14.289400 -12.968100 -8.603520 0.000000 0.000000 2.000000 -2.000000 0.000000 -15.773800 0.903071 131.248993 115.469002 -0.151857 0.142049 5.290620 1.729710 -168.662003 -2.000000 2.000000 0.000000 11.658000 -6.106730 123.516998 -115.947998 0.159300 0.104404 6.052500 2.811850 -139.701004 -4.717192 6.809999 0.562943 29.513115 3.687500 1.948601 -23.309553 10.782561 5.186492 5.851902 3.559891 8.785821 3.590123 -4.236072 -0.124972 -15.868737 -11.441119 -2.929679 
-1.283194 44.470875 -1.514984 -2.638060 -5.258120 -11.310900 -14.630300 2.702700 -2.060300 17.858801 2.487480 -0.800660 63.672501 14.445000 -12.632100 -8.603520 0.000000 0.000000 2.000000 -2.000000 0.000000 -15.049800 0.345317 130.537003 116.290001 -0.149970 0.141133 5.290200 1.719840 -168.613998 -2.000000 2.000000 0.000000 11.061300 -5.754580 123.068001 -116.503998 0.158194 0.103859 6.064180 2.810210 -139.662003 -4.725398 6.817264 0.554347 29.463100 3.694651 1.950671 -23.263617 10.791698 5.176552 5.842386 3.575194 8.786427 3.595558 -4.244271 -0.125397 -15.900715 -11.470115 -2.928846 
-1.322299 44.472820 -1.488123 -2.598710 -5.229020 -11.286500 -14.630900 2.713810 -2.002970 17.917500 2.458330 -0.767473 63.853802 14.600900 -12.298600 -8.603520 0.000000 0.000000 2.000000 -2.000000 0.000000 -14.316100 -0.212420 129.824005 117.120003 -0.148074 0.140179 5.291960 1.719490 -168.554993 -2.000000 2.000000 0.000000 10.445100 -5.412200 122.620003 -117.051003 0.157112 0.103313 6.060210 2.800750 -139.613007 -4.743149 6.840538 0.554850 29.444160 3.691646 1.959819 -23.230555 10.796736 5.163174 5.829446 3.592448 8.806067 3.598933 -4.228591 -0.124931 -15.936095 -11.523062 -2.950102 
-1.353193 44.474243 -1.463689 -2.569330 -5.238900 -11.249700 -14.670300 2.708060 -1.963600 17.898100 2.399760 -0.746067 63.995899 14.574100 -11.978200 -8.603520 0.000000 0.000000 2.000000 -2.000000 0.000000 -13.700000 -0.652556 129.376007 117.685997 -0.146788 0.139513 5.293260 1.709270 -168.447006 -2.000000 2.000000 0.000000 10.356700 -5.499760 122.364998 -117.880997 0.155480 0.102465 6.060680 2.800340 -139.604004 -4.751800 6.889650 0.487088 29.424345 3.689332 1.949605 -23.242125 10.834898 5.199983 5.834536 3.640758 8.802342 3.585156 -4.240272 -0.125401 -15.984745 -11.538446 -2.964452 
-1.384096 44.475681 -1.439245 -2.530150 -5.248810 -11.204000 -14.709700 2.705740 -1.915070 17.878599 2.341190 -0.724620 64.158501 14.542000 -11.648200 -8.603520 0.000000 0.000000 2.000000 -2.000000 0.000000 -13.074200 -1.073170 128.917007 118.251999 -0.145509 0.138834 5.294530 1.699060 -168.339996 -2.000000 2.000000 0.000000 10.268400 -5.577560 122.111000 -118.700996 0.153879 0.101604 6.061640 2.799520 -139.584000 -4.744789 6.911789 0.438679 29.394484 3.695774 1.960567 -23.235456 10.870011 5.222816 5.825228 3.691503 8.806757 3.584316 -4.240982 -0.125473 -16.023214 -11.551356 -2.976228 
